<svg xmlns="http://www.w3.org/2000/svg" viewBox="0 0 1920 400" preserveAspectRatio="none">
  <defs>
    <linearGradient id="skylineGrad" x1="0%" y1="0%" x2="0%" y2="100%">
      <stop offset="0%" style="stop-color:#2dd4bf;stop-opacity:0.08"/>
      <stop offset="100%" style="stop-color:#2dd4bf;stop-opacity:0.02"/>
    </linearGradient>
  </defs>
  <!-- Dubai Skyline Silhouette -->
  <path d="
    M0,400 L0,380
    L40,380 L40,340 L55,340 L55,320 L60,320 L60,300 L65,300 L65,340 L80,340 L80,380
    L120,380 L120,350 L130,350 L130,320 L135,320 L135,290 L140,290 L140,320 L145,320 L145,350 L155,350 L155,380
    L200,380 L200,360 L210,360 L210,330 L215,330 L215,280 L220,280 L220,250 L225,250 L225,220 L230,220 L230,250 L235,250 L235,280 L240,280 L240,330 L250,330 L250,360 L260,360 L260,380
    L310,380 L310,350 L320,350 L320,300 L325,300 L325,260 L330,260 L330,300 L340,300 L340,350 L350,350 L350,380
    L400,380 L400,340 L410,340 L410,280 L415,280 L415,200 L420,200 L420,150 L423,150 L423,120 L426,120 L426,80 L430,60 L434,80 L434,120 L437,120 L437,150 L440,150 L440,200 L445,200 L445,280 L450,280 L450,340 L460,340 L460,380
    L510,380 L510,350 L520,350 L520,310 L525,310 L525,270 L530,270 L530,310 L535,310 L535,350 L545,350 L545,380
    L590,380 L590,360 L600,360 L600,320 L605,320 L605,280 L610,280 L610,240 L615,240 L615,200 L620,200 L620,240 L625,240 L625,280 L630,280 L630,320 L640,320 L640,360 L650,360 L650,380
    L700,380 L700,350 L710,350 L710,290 L715,290 L715,240 L720,240 L720,290 L725,290 L725,350 L735,350 L735,380
    L780,380 L780,360 L790,360 L790,330 L795,330 L795,310 L800,310 L800,330 L805,330 L805,360 L815,360 L815,380
    L860,380 L860,350 L870,350 L870,300 L875,300 L875,230 L878,230 L878,160 L881,160 L881,100 L884,70 L887,100 L887,160 L890,160 L890,230 L893,230 L893,300 L900,300 L900,350 L910,350 L910,380
    L960,380 L960,360 L970,360 L970,320 L975,320 L975,280 L980,280 L980,250 L985,250 L985,280 L990,280 L990,320 L1000,320 L1000,360 L1010,360 L1010,380
    L1060,380 L1060,340 L1070,340 L1070,290 L1075,290 L1075,240 L1080,240 L1080,290 L1085,290 L1085,340 L1095,340 L1095,380
    L1140,380 L1140,360 L1150,360 L1150,330 L1155,330 L1155,300 L1160,300 L1160,270 L1165,270 L1165,300 L1170,300 L1170,330 L1180,330 L1180,360 L1190,360 L1190,380
    L1240,380 L1240,345 L1250,345 L1250,300 L1255,300 L1255,250 L1258,250 L1258,180 L1261,180 L1261,130 L1264,110 L1267,130 L1267,180 L1270,180 L1270,250 L1275,250 L1275,300 L1280,300 L1280,345 L1290,345 L1290,380
    L1340,380 L1340,360 L1350,360 L1350,320 L1355,320 L1355,280 L1360,280 L1360,320 L1365,320 L1365,360 L1375,360 L1375,380
    L1420,380 L1420,350 L1430,350 L1430,310 L1435,310 L1435,260 L1440,260 L1440,220 L1445,220 L1445,260 L1450,260 L1450,310 L1460,310 L1460,350 L1470,350 L1470,380
    L1520,380 L1520,360 L1530,360 L1530,330 L1535,330 L1535,300 L1540,300 L1540,330 L1545,330 L1545,360 L1555,360 L1555,380
    L1600,380 L1600,340 L1610,340 L1610,290 L1615,290 L1615,250 L1620,250 L1620,290 L1625,290 L1625,340 L1635,340 L1635,380
    L1680,380 L1680,360 L1690,360 L1690,330 L1695,330 L1695,310 L1700,310 L1700,330 L1705,330 L1705,360 L1715,360 L1715,380
    L1760,380 L1760,350 L1770,350 L1770,310 L1775,310 L1775,280 L1780,280 L1780,310 L1785,310 L1785,350 L1795,350 L1795,380
    L1840,380 L1840,360 L1850,360 L1850,340 L1855,340 L1855,320 L1860,320 L1860,340 L1865,340 L1865,360 L1875,360 L1875,380
    L1920,380 L1920,400 Z
  " fill="url(#skylineGrad)"/>
</svg>
