<svg xmlns="http://www.w3.org/2000/svg" viewBox="0 0 1920 600" preserveAspectRatio="none">
  <defs>
    <linearGradient id="heroSkyGrad" x1="0%" y1="0%" x2="0%" y2="100%">
      <stop offset="0%" style="stop-color:#2dd4bf;stop-opacity:0.15"/>
      <stop offset="40%" style="stop-color:#3b82f6;stop-opacity:0.08"/>
      <stop offset="100%" style="stop-color:#0a0a0f;stop-opacity:0"/>
    </linearGradient>
    <linearGradient id="bldgGrad1" x1="0%" y1="0%" x2="0%" y2="100%">
      <stop offset="0%" style="stop-color:#2dd4bf;stop-opacity:0.12"/>
      <stop offset="100%" style="stop-color:#2dd4bf;stop-opacity:0.03"/>
    </linearGradient>
    <linearGradient id="bldgGrad2" x1="0%" y1="0%" x2="0%" y2="100%">
      <stop offset="0%" style="stop-color:#3b82f6;stop-opacity:0.1"/>
      <stop offset="100%" style="stop-color:#3b82f6;stop-opacity:0.02"/>
    </linearGradient>
    <filter id="glow">
      <feGaussianBlur stdDeviation="2" result="blur"/>
      <feMerge>
        <feMergeNode in="blur"/>
        <feMergeNode in="SourceGraphic"/>
      </feMerge>
    </filter>
  </defs>

  <!-- Background layer buildings (far) -->
  <path d="
    M0,600 L0,520
    L60,520 L60,480 L80,480 L80,440 L90,440 L90,480 L110,480 L110,520
    L160,520 L160,460 L180,460 L180,420 L190,420 L190,460 L210,460 L210,520
    L280,520 L280,470 L300,470 L300,410 L310,410 L310,370 L315,370 L315,340 L320,340 L320,370 L325,370 L325,410 L335,410 L335,470 L355,470 L355,520
    L420,520 L420,490 L440,490 L440,450 L450,450 L450,490 L470,490 L470,520
    L540,520 L540,460 L560,460 L560,400 L570,400 L570,350 L575,350 L575,300 L580,300 L580,350 L585,350 L585,400 L595,400 L595,460 L615,460 L615,520
    L680,520 L680,480 L700,480 L700,440 L710,440 L710,480 L730,480 L730,520
    L800,520 L800,450 L820,450 L820,380 L830,380 L830,320 L835,320 L835,260 L838,260 L838,200 L840,200 L840,140 L842,140 L842,90 L844,90 L844,50 L846,30 L848,50 L848,90 L850,90 L850,140 L852,140 L852,200 L854,200 L854,260 L857,260 L857,320 L862,320 L862,380 L872,380 L872,450 L890,450 L890,520
    L960,520 L960,470 L980,470 L980,420 L990,420 L990,370 L995,370 L995,330 L1000,330 L1000,370 L1005,370 L1005,420 L1015,420 L1015,470 L1035,470 L1035,520
    L1100,520 L1100,480 L1120,480 L1120,440 L1130,440 L1130,480 L1150,480 L1150,520
    L1220,520 L1220,460 L1240,460 L1240,400 L1250,400 L1250,340 L1255,340 L1255,290 L1258,290 L1258,240 L1261,240 L1261,200 L1264,180 L1267,200 L1267,240 L1270,240 L1270,290 L1275,290 L1275,340 L1280,340 L1280,400 L1295,400 L1295,460 L1310,460 L1310,520
    L1380,520 L1380,480 L1400,480 L1400,430 L1410,430 L1410,380 L1415,380 L1415,340 L1420,340 L1420,380 L1425,380 L1425,430 L1435,430 L1435,480 L1455,480 L1455,520
    L1520,520 L1520,470 L1540,470 L1540,430 L1550,430 L1550,470 L1570,470 L1570,520
    L1640,520 L1640,480 L1660,480 L1660,440 L1670,440 L1670,400 L1675,400 L1675,440 L1680,440 L1680,480 L1700,480 L1700,520
    L1760,520 L1760,490 L1780,490 L1780,460 L1790,460 L1790,490 L1810,490 L1810,520
    L1860,520 L1860,480 L1880,480 L1880,450 L1890,450 L1890,480 L1910,480 L1910,520
    L1920,520 L1920,600 Z
  " fill="url(#bldgGrad1)" opacity="0.7"/>

  <!-- Foreground layer buildings (near) -->
  <path d="
    M0,600 L0,550
    L30,550 L30,530 L50,530 L50,510 L55,510 L55,530 L70,530 L70,550
    L140,550 L140,520 L160,520 L160,490 L170,490 L170,520 L190,520 L190,550
    L250,550 L250,530 L270,530 L270,500 L280,500 L280,530 L300,530 L300,550
    L370,550 L370,520 L390,520 L390,480 L400,480 L400,520 L420,520 L420,550
    L490,550 L490,530 L510,530 L510,510 L520,510 L520,530 L540,530 L540,550
    L610,550 L610,520 L630,520 L630,490 L640,490 L640,520 L660,520 L660,550
    L730,550 L730,540 L750,540 L750,520 L760,520 L760,540 L780,540 L780,550
    L850,550 L850,530 L870,530 L870,500 L880,500 L880,530 L900,530 L900,550
    L970,550 L970,530 L990,530 L990,510 L1000,510 L1000,530 L1020,530 L1020,550
    L1090,550 L1090,520 L1110,520 L1110,490 L1120,490 L1120,520 L1140,520 L1140,550
    L1210,550 L1210,540 L1230,540 L1230,520 L1240,520 L1240,540 L1260,540 L1260,550
    L1330,550 L1330,530 L1350,530 L1350,500 L1360,500 L1360,530 L1380,530 L1380,550
    L1450,550 L1450,530 L1470,530 L1470,510 L1480,510 L1480,530 L1500,530 L1500,550
    L1570,550 L1570,540 L1590,540 L1590,520 L1600,520 L1600,540 L1620,540 L1620,550
    L1690,550 L1690,530 L1710,530 L1710,510 L1720,510 L1720,530 L1740,530 L1740,550
    L1810,550 L1810,540 L1830,540 L1830,530 L1840,530 L1840,540 L1860,540 L1860,550
    L1920,550 L1920,600 Z
  " fill="url(#bldgGrad2)" opacity="0.5"/>

  <!-- Window lights on Burj Khalifa -->
  <g fill="#2dd4bf" opacity="0.3" filter="url(#glow)">
    <rect x="843" y="100" width="2" height="2" rx="1"/>
    <rect x="843" y="130" width="2" height="2" rx="1"/>
    <rect x="843" y="160" width="2" height="2" rx="1"/>
    <rect x="843" y="190" width="2" height="2" rx="1"/>
    <rect x="843" y="220" width="2" height="2" rx="1"/>
    <rect x="847" y="110" width="2" height="2" rx="1"/>
    <rect x="847" y="150" width="2" height="2" rx="1"/>
    <rect x="847" y="180" width="2" height="2" rx="1"/>
    <rect x="839" y="120" width="2" height="2" rx="1"/>
    <rect x="839" y="170" width="2" height="2" rx="1"/>
  </g>

  <!-- Scattered window lights on other buildings -->
  <g fill="#3b82f6" opacity="0.2">
    <rect x="310" y="380" width="2" height="2" rx="1"/>
    <rect x="315" y="360" width="2" height="2" rx="1"/>
    <rect x="575" y="320" width="2" height="2" rx="1"/>
    <rect x="580" y="370" width="2" height="2" rx="1"/>
    <rect x="995" y="350" width="2" height="2" rx="1"/>
    <rect x="1000" y="390" width="2" height="2" rx="1"/>
    <rect x="1258" y="260" width="2" height="2" rx="1"/>
    <rect x="1262" y="300" width="2" height="2" rx="1"/>
    <rect x="1415" y="360" width="2" height="2" rx="1"/>
  </g>
</svg>
